<svg width="1032" height="401" viewBox="0 0 1032 401" fill="none" xmlns="http://www.w3.org/2000/svg">
<path d="M239.669 325.431V239.031H271.589C277.749 239.031 282.989 240.031 287.309 242.031C291.629 244.031 294.909 246.831 297.149 250.431C299.469 253.951 300.629 258.151 300.629 263.031C300.629 267.911 299.469 272.191 297.149 275.871C294.909 279.471 291.629 282.311 287.309 284.391C282.989 286.391 277.749 287.391 271.589 287.391H246.869V278.751H271.229C277.629 278.751 282.469 277.351 285.749 274.551C289.109 271.751 290.789 267.911 290.789 263.031C290.789 258.231 289.149 254.471 285.869 251.751C282.589 249.031 277.709 247.671 271.229 247.671H249.509V325.431H239.669ZM290.309 325.431L244.349 282.591H257.789L305.189 325.431H290.309Z" fill="#0A2A45"/>
<path d="M229.084 325.431V316.791H205.924C198.724 316.791 192.524 315.351 187.324 312.471C182.124 309.511 178.124 305.391 175.324 300.111C172.524 294.831 171.124 288.711 171.124 281.751C171.124 274.871 172.524 268.871 175.324 263.751C178.124 258.631 182.124 254.671 187.324 251.871C192.444 249.071 198.644 247.671 205.924 247.671H229.084V239.031H205.924C196.884 239.031 189.004 240.831 182.284 244.431C175.564 247.951 170.364 252.951 166.684 259.431C162.924 265.831 161.044 273.351 161.044 281.991C161.044 290.631 162.924 298.231 166.684 304.791C170.444 311.271 175.684 316.351 182.404 320.031C189.044 323.631 196.844 325.431 205.804 325.431H229.084ZM234.964 325.431V239.031H225.124V325.431H234.964Z" fill="#0A2A45"/>
<path d="M98.1719 39.8374C74.6321 46.5329 56.1657 59.1449 45.4502 77.7046C11.3341 136.795 68.6981 233.785 173.575 294.335C278.452 354.886 391.128 356.07 425.244 296.979C435.396 279.395 437.447 258.456 432.557 236.12C444.872 270.971 444.479 304.713 428.59 332.233C388.065 402.423 262.097 405.562 147.231 339.245C32.3656 272.927 -27.9003 162.265 12.624 92.0747C29.134 63.4786 59.8264 46.0125 98.1719 39.8374Z" fill="#0A2A45"/>
<path d="M420.68 209.918C433.2 238.924 434.544 266.495 421.998 288.225C415.862 298.853 406.853 307.301 395.579 313.588C401.557 309.047 406.469 303.597 410.147 297.227C419.198 281.55 419.688 262.184 413.003 241.222C416.434 231.15 419.022 220.688 420.68 209.918ZM119.972 39.0386C112.259 45.4273 105.075 52.4312 98.4922 59.9731C77.2011 64.7044 60.831 74.7832 51.8389 90.3579C49.9414 93.6445 48.4207 97.0935 47.2628 100.685C48.4154 92.0754 51.0799 83.9718 55.3653 76.5493C67.3913 55.7197 90.4443 43.2594 119.972 39.0386Z" fill="#0A2A45"/>
<path d="M237.511 0C338.246 0 419.909 81.6628 419.909 182.398C419.909 245.57 387.793 301.238 339 333.973C325.393 333.631 311.815 332.569 298.358 330.782C355.724 306.669 396.007 249.95 396.007 183.82C396.006 95.8143 324.663 24.4717 236.657 24.4717C148.651 24.4718 77.3086 95.8144 77.3084 183.82C77.3084 191.037 77.7912 198.142 78.7205 205.104C70.2395 193.179 62.5544 180.41 55.7742 166.793C63.6907 73.3624 142.032 0.000158015 237.511 0Z" fill="#0A2A45"/>
<rect x="228.211" y="27.3169" width="19.3496" height="31.8699" fill="#0A2A45"/>
<rect x="80.244" y="191.788" width="19.3496" height="31.8699" transform="rotate(-90 80.244 191.788)" fill="#0A2A45"/>
<rect x="361.382" y="191.788" width="19.3496" height="31.8699" transform="rotate(-90 361.382 191.788)" fill="#0A2A45"/>
<rect x="147.967" y="135.295" width="19.3496" height="113.821" transform="rotate(-55 147.967 135.295)" fill="#0A2A45"/>
<rect x="353.744" y="99.0239" width="9.67478" height="163.669" transform="rotate(55 353.744 99.0239)" fill="#0A2A45"/>
<path d="M440.424 206.585H421.21C422.246 198.575 422.783 190.407 422.783 182.114C422.783 173.624 422.219 165.266 421.134 157.073H440.424V206.585Z" fill="#0A2A45"/>
<path d="M504.52 166V46.8H548.84C556.947 46.8 564.093 48.2933 570.28 51.28C576.573 54.16 581.48 58.4267 585 64.08C588.52 69.6267 590.28 76.4 590.28 84.4C590.28 92.6133 588.307 99.6 584.36 105.36C580.52 111.12 575.293 115.387 568.68 118.16L596.04 166H571.4L542.12 113.68L556.2 122H526.28V166H504.52ZM526.28 102.8H549.16C553.107 102.8 556.52 102.053 559.4 100.56C562.28 98.96 564.52 96.7733 566.12 94C567.72 91.2267 568.52 88.0267 568.52 84.4C568.52 80.6667 567.72 77.4667 566.12 74.8C564.52 72.0267 562.28 69.8933 559.4 68.4C556.52 66.8 553.107 66 549.16 66H526.28V102.8ZM656.221 167.92C647.048 167.92 638.888 166 631.741 162.16C624.701 158.32 619.155 153.04 615.101 146.32C611.048 139.6 609.021 131.973 609.021 123.44V46.8H630.781V122.32C630.781 127.227 631.848 131.653 633.981 135.6C636.221 139.547 639.261 142.64 643.101 144.88C646.941 147.013 651.315 148.08 656.221 148.08C661.235 148.08 665.608 147.013 669.341 144.88C673.181 142.64 676.168 139.547 678.301 135.6C680.541 131.653 681.661 127.227 681.661 122.32V46.8H703.421V123.44C703.421 131.973 701.395 139.6 697.341 146.32C693.288 153.04 687.688 158.32 680.541 162.16C673.501 166 665.395 167.92 656.221 167.92ZM725.145 166V46.8H764.025C776.612 46.8 787.545 49.36 796.825 54.48C806.212 59.4933 813.465 66.48 818.585 75.44C823.705 84.2933 826.265 94.5867 826.265 106.32C826.265 117.947 823.705 128.293 818.585 137.36C813.465 146.32 806.212 153.36 796.825 158.48C787.545 163.493 776.612 166 764.025 166H725.145ZM746.905 146.8H764.505C772.612 146.8 779.598 145.147 785.465 141.84C791.438 138.427 796.078 133.733 799.385 127.76C802.692 121.68 804.345 114.533 804.345 106.32C804.345 98 802.692 90.8533 799.385 84.88C796.078 78.9067 791.438 74.2667 785.465 70.96C779.598 67.6533 772.612 66 764.505 66H746.905V146.8ZM902.303 167.92C893.556 167.92 885.396 166.373 877.823 163.28C870.249 160.187 863.636 155.867 857.983 150.32C852.329 144.773 847.903 138.267 844.703 130.8C841.609 123.227 840.063 115.067 840.063 106.32C840.063 97.4667 841.609 89.3067 844.703 81.84C847.796 74.3733 852.169 67.8667 857.823 62.32C863.476 56.7733 870.089 52.5067 877.663 49.52C885.236 46.4267 893.449 44.88 902.303 44.88C911.156 44.88 919.369 46.4267 926.943 49.52C934.516 52.6133 941.129 56.9333 946.783 62.48C952.436 67.92 956.809 74.3733 959.903 81.84C963.103 89.3067 964.703 97.4667 964.703 106.32C964.703 115.067 963.103 123.227 959.903 130.8C956.703 138.267 952.276 144.773 946.623 150.32C940.969 155.867 934.356 160.187 926.783 163.28C919.316 166.373 911.156 167.92 902.303 167.92ZM902.303 148.08C908.169 148.08 913.556 147.067 918.463 145.04C923.369 142.907 927.636 139.973 931.263 136.24C934.996 132.507 937.823 128.08 939.743 122.96C941.769 117.84 942.783 112.293 942.783 106.32C942.783 100.347 941.769 94.8533 939.743 89.84C937.823 84.72 934.996 80.2933 931.263 76.56C927.636 72.72 923.369 69.7867 918.463 67.76C913.556 65.7333 908.169 64.72 902.303 64.72C896.543 64.72 891.209 65.7333 886.303 67.76C881.396 69.7867 877.076 72.72 873.343 76.56C869.716 80.2933 866.889 84.72 864.863 89.84C862.836 94.8533 861.823 100.347 861.823 106.32C861.823 112.293 862.836 117.84 864.863 122.96C866.889 128.08 869.716 132.507 873.343 136.24C877.076 139.973 881.396 142.907 886.303 145.04C891.209 147.067 896.543 148.08 902.303 148.08Z" fill="#0A2A45"/>
<path d="M494.76 348L535.88 228.8H564.04L605.16 348H581.48L573 322.4H526.92L518.28 348H494.76ZM533.16 303.2H566.76L546.92 243.84H553L533.16 303.2ZM618.426 348V228.8H657.306C669.893 228.8 680.826 231.36 690.106 236.48C699.493 241.493 706.746 248.48 711.866 257.44C716.986 266.293 719.546 276.587 719.546 288.32C719.546 299.947 716.986 310.293 711.866 319.36C706.746 328.32 699.493 335.36 690.106 340.48C680.826 345.493 669.893 348 657.306 348H618.426ZM640.186 328.8H657.786C665.893 328.8 672.88 327.147 678.746 323.84C684.72 320.427 689.36 315.733 692.666 309.76C695.973 303.68 697.626 296.533 697.626 288.32C697.626 280 695.973 272.853 692.666 266.88C689.36 260.907 684.72 256.267 678.746 252.96C672.88 249.653 665.893 248 657.786 248H640.186V328.8ZM736.864 348V228.8H757.664L802.304 289.44H792.384L836.064 228.8H856.864V348H834.944V253.6L843.424 255.68L798.144 316H795.584L751.424 255.68L758.624 253.6V348H736.864ZM879.676 348V228.8H901.436V348H879.676ZM924.364 348V228.8H941.324L1006.92 317.12L998.124 318.88V228.8H1019.88V348H1002.76L938.124 259.04L946.124 257.28V348H924.364Z" fill="#0A2A45"/>
</svg>
