<svg width="1353" height="534" viewBox="0 0 1353 534" fill="none" xmlns="http://www.w3.org/2000/svg">
<path d="M326.359 404.592V318.192H358.279C364.439 318.192 369.679 319.192 373.999 321.192C378.319 323.192 381.599 325.992 383.839 329.592C386.159 333.112 387.319 337.312 387.319 342.192C387.319 347.072 386.159 351.352 383.839 355.032C381.599 358.632 378.319 361.472 373.999 363.552C369.679 365.552 364.439 366.552 358.279 366.552H333.559V357.912H357.919C364.319 357.912 369.159 356.512 372.439 353.712C375.799 350.912 377.479 347.072 377.479 342.192C377.479 337.392 375.839 333.632 372.559 330.912C369.279 328.192 364.399 326.832 357.919 326.832H336.199V404.592H326.359ZM376.999 404.592L331.039 361.752H344.479L391.879 404.592H376.999Z" fill="white"/>
<path d="M321.797 404.592V395.952H298.637C291.437 395.952 285.237 394.512 280.037 391.632C274.837 388.672 270.837 384.552 268.037 379.272C265.237 373.992 263.837 367.872 263.837 360.912C263.837 354.032 265.237 348.032 268.037 342.912C270.837 337.792 274.837 333.832 280.037 331.032C285.157 328.232 291.357 326.832 298.637 326.832H321.797V318.192H298.637C289.597 318.192 281.717 319.992 274.997 323.592C268.277 327.112 263.077 332.112 259.397 338.592C255.637 344.992 253.757 352.512 253.757 361.152C253.757 369.792 255.637 377.392 259.397 383.952C263.157 390.432 268.397 395.512 275.117 399.192C281.757 402.792 289.557 404.592 298.517 404.592H321.797ZM327.677 404.592V318.192H317.837V404.592H327.677Z" fill="white"/>
<path d="M135.284 54.894C102.844 64.12 77.3965 81.5003 62.6299 107.077C15.6189 188.503 94.6642 322.151 239.183 405.589C383.702 489.027 538.968 490.658 585.98 409.232C599.969 385.002 602.795 356.147 596.056 325.368C613.027 373.393 612.485 419.888 590.59 457.811C534.748 554.532 361.165 558.858 202.882 467.473C44.599 376.088 -38.446 223.599 17.3956 126.877C40.1468 87.4712 82.4424 63.4024 135.284 54.894Z" fill="white"/>
<path d="M579.691 289.265C596.943 329.234 598.794 367.224 581.506 397.168C573.049 411.817 560.632 423.461 545.092 432.126C553.333 425.867 560.106 418.354 565.175 409.574C577.648 387.971 578.326 361.283 569.114 332.397C573.841 318.519 577.406 304.103 579.691 289.265ZM165.32 53.7944C154.692 62.5982 144.79 72.248 135.718 82.6411C106.38 89.1609 83.8245 103.051 71.4339 124.512C68.8196 129.04 66.7228 133.791 65.1273 138.74C66.7158 126.877 70.3876 115.71 76.2923 105.483C92.8641 76.7802 124.631 59.6106 165.32 53.7944Z" fill="white"/>
<path d="M327.286 0C466.098 0 578.628 112.53 578.628 251.342C578.628 338.39 534.375 415.101 467.14 460.209C448.39 459.738 429.679 458.275 411.135 455.812C490.183 422.584 545.69 344.426 545.69 253.302C545.69 132.031 447.381 33.7219 326.11 33.7217C204.839 33.7217 106.529 132.031 106.529 253.302C106.529 263.244 107.19 273.031 108.469 282.623C96.7838 266.19 86.1955 248.596 76.8533 229.832C87.7647 101.089 195.719 1.84766e-05 327.286 0Z" fill="white"/>
<rect x="314.471" y="37.6423" width="26.6634" height="43.9161" fill="white"/>
<rect x="110.575" y="264.281" width="26.6634" height="43.9161" transform="rotate(-90 110.575 264.281)" fill="white"/>
<rect x="497.978" y="264.281" width="26.6634" height="43.9161" transform="rotate(-90 497.978 264.281)" fill="white"/>
<rect x="203.896" y="186.434" width="26.6634" height="156.843" transform="rotate(-55 203.896 186.434)" fill="white"/>
<rect x="487.453" y="136.454" width="13.3317" height="225.533" transform="rotate(55 487.453 136.454)" fill="white"/>
<path d="M606.897 284.67H580.423C581.85 273.632 582.588 262.377 582.588 250.95C582.588 239.252 581.816 227.733 580.321 216.444H606.897V284.67Z" fill="white"/>
<path d="M651.28 273V94.2H717.76C729.92 94.2 740.64 96.44 749.92 100.92C759.36 105.24 766.72 111.64 772 120.12C777.28 128.44 779.92 138.6 779.92 150.6C779.92 162.92 776.96 173.4 771.04 182.04C765.28 190.68 757.44 197.08 747.52 201.24L788.56 273H751.6L707.68 194.52L728.8 207H683.92V273H651.28ZM683.92 178.2H718.24C724.16 178.2 729.28 177.08 733.6 174.84C737.92 172.44 741.28 169.16 743.68 165C746.08 160.84 747.28 156.04 747.28 150.6C747.28 145 746.08 140.2 743.68 136.2C741.28 132.04 737.92 128.84 733.6 126.6C729.28 124.2 724.16 123 718.24 123H683.92V178.2ZM878.832 275.88C865.072 275.88 852.832 273 842.112 267.24C831.552 261.48 823.232 253.56 817.152 243.48C811.072 233.4 808.032 221.96 808.032 209.16V94.2H840.672V207.48C840.672 214.84 842.272 221.48 845.472 227.4C848.832 233.32 853.392 237.96 859.152 241.32C864.912 244.52 871.472 246.12 878.832 246.12C886.352 246.12 892.912 244.52 898.512 241.32C904.272 237.96 908.752 233.32 911.952 227.4C915.312 221.48 916.992 214.84 916.992 207.48V94.2H949.632V209.16C949.632 221.96 946.592 233.4 940.512 243.48C934.432 253.56 926.032 261.48 915.312 267.24C904.752 273 892.592 275.88 878.832 275.88ZM982.218 273V94.2H1040.54C1059.42 94.2 1075.82 98.04 1089.74 105.72C1103.82 113.24 1114.7 123.72 1122.38 137.16C1130.06 150.44 1133.9 165.88 1133.9 183.48C1133.9 200.92 1130.06 216.44 1122.38 230.04C1114.7 243.48 1103.82 254.04 1089.74 261.72C1075.82 269.24 1059.42 273 1040.54 273H982.218ZM1014.86 244.2H1041.26C1053.42 244.2 1063.9 241.72 1072.7 236.76C1081.66 231.64 1088.62 224.6 1093.58 215.64C1098.54 206.52 1101.02 195.8 1101.02 183.48C1101.02 171 1098.54 160.28 1093.58 151.32C1088.62 142.36 1081.66 135.4 1072.7 130.44C1063.9 125.48 1053.42 123 1041.26 123H1014.86V244.2ZM1247.95 275.88C1234.83 275.88 1222.59 273.56 1211.23 268.92C1199.87 264.28 1189.95 257.8 1181.47 249.48C1172.99 241.16 1166.35 231.4 1161.55 220.2C1156.91 208.84 1154.59 196.6 1154.59 183.48C1154.59 170.2 1156.91 157.96 1161.55 146.76C1166.19 135.56 1172.75 125.8 1181.23 117.48C1189.71 109.16 1199.63 102.76 1210.99 98.28C1222.35 93.64 1234.67 91.32 1247.95 91.32C1261.23 91.32 1273.55 93.64 1284.91 98.28C1296.27 102.92 1306.19 109.4 1314.67 117.72C1323.15 125.88 1329.71 135.56 1334.35 146.76C1339.15 157.96 1341.55 170.2 1341.55 183.48C1341.55 196.6 1339.15 208.84 1334.35 220.2C1329.55 231.4 1322.91 241.16 1314.43 249.48C1305.95 257.8 1296.03 264.28 1284.67 268.92C1273.47 273.56 1261.23 275.88 1247.95 275.88ZM1247.95 246.12C1256.75 246.12 1264.83 244.6 1272.19 241.56C1279.55 238.36 1285.95 233.96 1291.39 228.36C1296.99 222.76 1301.23 216.12 1304.11 208.44C1307.15 200.76 1308.67 192.44 1308.67 183.48C1308.67 174.52 1307.15 166.28 1304.11 158.76C1301.23 151.08 1296.99 144.44 1291.39 138.84C1285.95 133.08 1279.55 128.68 1272.19 125.64C1264.83 122.6 1256.75 121.08 1247.95 121.08C1239.31 121.08 1231.31 122.6 1223.95 125.64C1216.59 128.68 1210.11 133.08 1204.51 138.84C1199.07 144.44 1194.83 151.08 1191.79 158.76C1188.75 166.28 1187.23 174.52 1187.23 183.48C1187.23 192.44 1188.75 200.76 1191.79 208.44C1194.83 216.12 1199.07 222.76 1204.51 228.36C1210.11 233.96 1216.59 238.36 1223.95 241.56C1231.31 244.6 1239.31 246.12 1247.95 246.12Z" fill="white"/>
<path d="M678.32 421L654.32 331.6H671.84L690.68 407.8H686.12L705.8 331.6H722.72L742.28 407.8H737.72L756.56 331.6H774.08L750.08 421H731.36L711.56 346.84H716.84L697.04 421H678.32ZM783.859 421L814.699 331.6H835.819L866.659 421H848.899L842.539 401.8H807.979L801.499 421H783.859ZM812.659 387.4H837.859L822.979 342.88H827.539L812.659 387.4ZM898.472 421V346H875.312V331.6H937.712V346H914.912V421H898.472ZM998.038 422.44C991.638 422.44 985.718 421.28 980.278 418.96C974.918 416.64 970.198 413.4 966.118 409.24C962.118 405.08 958.998 400.2 956.758 394.6C954.518 389 953.398 382.88 953.398 376.24C953.398 369.6 954.478 363.48 956.638 357.88C958.878 352.2 961.998 347.32 965.998 343.24C970.078 339.08 974.838 335.88 980.278 333.64C985.718 331.32 991.638 330.16 998.038 330.16C1004.44 330.16 1010.16 331.24 1015.2 333.4C1020.32 335.56 1024.64 338.44 1028.16 342.04C1031.68 345.56 1034.2 349.44 1035.72 353.68L1021.08 360.52C1019.4 356.04 1016.56 352.36 1012.56 349.48C1008.56 346.52 1003.72 345.04 998.038 345.04C992.438 345.04 987.478 346.36 983.158 349C978.918 351.64 975.598 355.28 973.198 359.92C970.878 364.56 969.718 370 969.718 376.24C969.718 382.48 970.878 387.96 973.198 392.68C975.598 397.32 978.918 400.96 983.158 403.6C987.478 406.24 992.438 407.56 998.038 407.56C1003.72 407.56 1008.56 406.12 1012.56 403.24C1016.56 400.28 1019.4 396.56 1021.08 392.08L1035.72 398.92C1034.2 403.16 1031.68 407.08 1028.16 410.68C1024.64 414.2 1020.32 417.04 1015.2 419.2C1010.16 421.36 1004.44 422.44 998.038 422.44ZM1060.97 421V331.6H1077.29V370.6H1115.33V331.6H1131.77V421H1115.33V385H1077.29V421H1060.97Z" fill="white"/>
</svg>
