<svg width="88" height="78" viewBox="0 0 88 78" fill="none" xmlns="http://www.w3.org/2000/svg">
<path d="M46.7233 53.3399V45.0506H49.7535C50.3383 45.0506 50.8357 45.1466 51.2458 45.3384C51.6559 45.5303 51.9673 45.799 52.1799 46.1443C52.4001 46.4821 52.5103 46.885 52.5103 47.3532C52.5103 47.8214 52.4001 48.232 52.1799 48.5851C51.9673 48.9305 51.6559 49.2029 51.2458 49.4025C50.8357 49.5944 50.3383 49.6903 49.7535 49.6903H47.4068V48.8614H49.7193C50.3269 48.8614 50.7863 48.7271 51.0977 48.4584C51.4167 48.1898 51.5762 47.8214 51.5762 47.3532C51.5762 46.8927 51.4205 46.5319 51.1091 46.271C50.7977 46.01 50.3345 45.8796 49.7193 45.8796H47.6575V53.3399H46.7233ZM51.5306 53.3399L47.1676 49.2298H48.4435L52.9431 53.3399H51.5306Z" fill="white"/>
<path d="M47.384 53.3399V52.511H45.1854C44.5019 52.511 43.9134 52.3728 43.4197 52.0965C42.9261 51.8125 42.5464 51.4173 42.2806 50.9107C42.0148 50.4041 41.8819 49.817 41.8819 49.1492C41.8819 48.4891 42.0148 47.9135 42.2806 47.4223C42.5464 46.9311 42.9261 46.5511 43.4197 46.2825C43.9058 46.0139 44.4944 45.8796 45.1854 45.8796H47.384V45.0506H45.1854C44.3273 45.0506 43.5792 45.2233 42.9413 45.5687C42.3034 45.9064 41.8097 46.3861 41.4604 47.0078C41.1035 47.6218 40.925 48.3433 40.925 49.1722C40.925 50.0012 41.1035 50.7303 41.4604 51.3597C41.8173 51.9814 42.3148 52.4688 42.9527 52.8218C43.583 53.1672 44.3235 53.3399 45.1741 53.3399H47.384ZM47.9422 53.3399V45.0506H47.0081V53.3399H47.9422Z" fill="white"/>
<path d="M19.5802 8.02922C14.8852 9.37871 11.2022 11.9208 9.06498 15.6615C2.26053 27.5713 13.7017 47.1194 34.6194 59.3234C55.5371 71.5274 78.0103 71.766 84.8148 59.8562C86.8398 56.3118 87.2487 52.091 86.2729 47.5885C88.7298 54.6133 88.6515 61.4145 85.4822 66.9616C77.3996 81.1085 52.2752 81.7413 29.3652 68.3749C6.45525 55.0086 -5.56474 32.7045 2.51788 18.5576C5.81078 12.7941 11.9323 9.27382 19.5802 8.02922Z" fill="white"/>
<path d="M83.9047 42.3092C86.4019 48.1553 86.6698 53.712 84.1675 58.0918C82.9434 60.2343 81.1463 61.9374 78.8972 63.2048C80.09 62.2893 81.07 61.1905 81.8038 59.9062C83.6091 56.7464 83.7073 52.8429 82.3739 48.6179C83.0582 46.588 83.5741 44.4795 83.9047 42.3092Z" fill="white"/>
<path d="M23.9285 7.86809C22.3902 9.15582 20.957 10.5673 19.6439 12.0875C15.3976 13.0412 12.1329 15.0728 10.3395 18.2117C9.96096 18.8742 9.65755 19.5694 9.42659 20.2934C9.65647 18.558 10.1878 16.9246 11.0425 15.4285C13.4411 11.2302 18.0392 8.71878 23.9285 7.86809Z" fill="white"/>
<path d="M47.3714 0C67.4631 0 83.7507 16.4591 83.7507 36.7623C83.7507 49.4944 77.3456 60.7145 67.614 67.3123C64.9001 67.2434 62.192 67.0294 59.508 66.6693C70.9492 61.8091 78.9834 50.3773 78.9834 37.0491C78.9833 19.3115 64.754 4.93225 47.2012 4.93224C29.6484 4.93224 15.419 19.3115 15.419 37.0491C15.419 38.5032 15.5146 39.9348 15.6999 41.3377C14.0085 38.9341 12.476 36.3608 11.1238 33.6163C12.7031 14.7857 28.3284 1.87434e-05 47.3714 0Z" fill="white"/>
<path d="M45.5166 5.50575H49.3759V11.9291H45.5166V5.50575Z" fill="white"/>
<path d="M16.0046 38.655V34.7551H22.3611V38.655H16.0046Z" fill="white"/>
<path d="M72.0775 38.655V34.7551H78.4339V38.655H72.0775Z" fill="white"/>
<path d="M29.512 27.2687L31.7256 24.0741L50.3217 37.2323L48.1081 40.4269L29.512 27.2687Z" fill="white"/>
<path d="M70.5542 19.9584L71.6609 21.5557L44.9208 40.4765L43.814 38.8792L70.5542 19.9584Z" fill="white"/>
<path d="M87.8427 41.6372H84.0105C84.2172 40.0227 84.3239 38.3764 84.3239 36.705C84.3239 34.994 84.2121 33.3093 83.9957 31.6581H87.8427V41.6372Z" fill="white"/>
</svg>
